# Blender v2.92.0 OBJ File: 'picture_frames_lib.blend'
# www.blender.org
mtllib frame1.mtl
o picture_frame_victorian_1
v 0.000002 0.599988 -0.499988
v 0.038611 0.535730 -0.435730
v 0.038611 0.593474 0.493474
v 0.038611 0.535730 0.435731
v 0.000002 0.599988 0.499988
v 0.017798 0.464437 0.364437
v 0.008724 0.447893 0.347894
v 0.038611 0.593474 -0.493474
v 0.038611 -0.593475 -0.493473
v 0.000002 -0.599989 -0.499987
v 0.038611 -0.535731 -0.435730
v 0.017798 -0.464438 -0.364436
v 0.008724 -0.447894 -0.347893
v 0.017798 0.464437 -0.364437
v 0.008724 0.447894 -0.347893
v 0.038611 -0.593473 0.493475
v 0.000002 -0.599987 0.499989
v 0.017798 -0.464436 0.364438
v 0.038611 -0.535730 0.435731
v 0.008724 -0.447893 0.347894
vt 0.072120 0.916401
vt 0.439456 0.916401
vt 0.446556 0.925213
vt 0.065102 0.925213
vt 0.083663 0.916401
vt 0.431635 0.916401
vt 0.439909 0.925213
vt 0.075389 0.925213
vt 0.010856 0.993943
vt 0.504442 0.993943
vt 0.509080 0.999215
vt 0.006226 0.999215
vt 0.010362 0.993943
vt 0.501935 0.993943
vt 0.506094 0.999215
vt 0.006226 0.999215
vt 0.083663 0.916401
vt 0.431635 0.916401
vt 0.439909 0.925213
vt 0.075389 0.925213
vt 0.034858 0.961461
vt 0.477153 0.961461
vt 0.034858 0.961461
vt 0.477153 0.961461
vt 0.501935 0.993943
vt 0.010362 0.993943
vt 0.065102 0.925213
vt 0.446556 0.925213
vt 0.475564 0.961461
vt 0.039734 0.961461
vt 0.506094 0.999215
vt 0.006226 0.999215
vt 0.010856 0.993943
vt 0.504442 0.993943
vt 0.509080 0.999215
vt 0.006226 0.999215
vt 0.072120 0.916401
vt 0.439456 0.916401
vt 0.039734 0.961461
vt 0.475564 0.961461
vn 0.8768 0.0000 0.4809
vn 0.8768 -0.4809 -0.0000
vn 0.1664 -0.9861 0.0000
vn 0.1664 -0.0000 -0.9861
vn 0.8768 0.4809 -0.0000
vn 1.0000 0.0000 -0.0000
vn 0.9599 0.0000 0.2802
vn 0.9599 -0.0000 -0.2802
vn 0.9599 0.2802 -0.0000
vn 0.1664 0.0000 0.9861
vn 0.1664 0.9861 0.0000
vn 0.8768 -0.0000 -0.4809
vn 0.9599 -0.2802 -0.0000
usemtl picture_frames
s off
f 15/1/1 13/2/1 12/3/1 14/4/1
f 7/5/2 15/6/2 14/7/2 6/8/2
f 9/9/3 16/10/3 17/11/3 10/12/3
f 8/13/4 9/14/4 10/15/4 1/16/4
f 13/17/5 20/18/5 18/19/5 12/20/5
f 2/21/6 11/22/6 9/14/6 8/13/6
f 14/4/7 12/3/7 11/22/7 2/21/7
f 19/23/6 4/24/6 3/25/6 16/26/6
f 18/27/8 6/28/8 4/24/8 19/23/8
f 12/20/9 18/19/9 19/29/9 11/30/9
f 11/30/6 19/29/6 16/10/6 9/9/6
f 16/26/10 3/25/10 5/31/10 17/32/10
f 3/33/11 8/34/11 1/35/11 5/36/11
f 20/37/12 7/38/12 6/28/12 18/27/12
f 4/39/6 2/40/6 8/34/6 3/33/6
f 6/8/13 14/7/13 2/40/13 4/39/13
