# Blender v2.92.0 OBJ File: ''
# www.blender.org
mtllib chip.mtl
o Circle
v 0.000000 0.000000 -1.000000
v -0.866025 0.000000 -0.500000
v -0.866025 0.000000 0.500000
v 0.000000 0.000000 1.000000
v 0.866025 0.000000 0.500000
v 0.866025 0.000000 -0.500000
v 0.000000 0.000000 0.000000
v 0.000000 0.043922 -1.000000
v -0.866025 0.043922 -0.500000
v -0.866025 0.043922 0.500000
v 0.000000 0.043922 1.000000
v 0.866025 0.043922 0.500000
v 0.866025 0.043922 -0.500000
v 0.000000 0.155692 -0.830633
v -0.719349 0.155692 -0.415316
v -0.719349 0.155692 0.415316
v 0.000000 0.155692 0.830633
v 0.719349 0.155692 0.415316
v 0.719349 0.155692 -0.415316
v 0.000000 0.155692 -0.830633
v -0.719349 0.155692 -0.415316
v -0.719349 0.155692 0.415316
v 0.000000 0.155692 0.830633
v 0.719349 0.155692 0.415316
v 0.719349 0.155692 -0.415316
v 0.000000 0.155692 -0.757517
v -0.656029 0.155692 -0.378759
v -0.656029 0.155692 0.378759
v 0.000000 0.155692 0.757517
v 0.656029 0.155692 0.378759
v 0.656029 0.155692 -0.378759
v 0.000000 0.155692 0.000000
vt 0.000000 0.000000
vt 0.000000 0.000000
vt 0.000000 0.000000
vt 0.000000 0.000000
vt 0.000000 0.000000
vt 0.000000 0.000000
vt 0.000000 0.000000
vt 0.000000 0.000000
vt 0.000000 0.000000
vt 0.000000 0.000000
vt 0.000000 0.000000
vt 0.000000 0.000000
vt 0.000000 0.000000
vt 0.000000 0.000000
vt 0.000000 0.000000
vt 0.000000 0.000000
vt 0.000000 0.000000
vt 0.000000 0.000000
vt 0.000000 0.000000
vt 0.000000 0.000000
vt 0.000000 0.000000
vt 0.000000 0.000000
vt 0.000000 0.000000
vt 0.000000 0.000000
vt 0.000000 0.000000
vt 0.000000 0.000000
vt 0.000000 0.000000
vt 0.000000 0.000000
vt 0.000000 0.000000
vt 0.000000 0.000000
vt 0.000000 0.000000
vt 0.000000 0.000000
vn 0.0000 -1.0000 0.0000
vn 0.5000 0.0000 0.8660
vn -1.0000 0.0000 0.0000
vn 1.0000 0.0000 0.0000
vn -0.5000 0.0000 0.8660
vn -0.5000 0.0000 -0.8660
vn 0.5000 0.0000 -0.8660
vn 0.0000 0.0000 1.0000
vn 0.0000 1.0000 0.0000
vn -0.3030 0.7954 0.5249
vn -0.3030 0.7954 -0.5249
vn 0.3030 0.7954 -0.5249
vn 0.3030 0.7954 0.5249
vn -0.6061 0.7954 0.0000
vn 0.6061 0.7954 0.0000
usemtl Gold
s off
f 5/1/1 4/2/1 7/3/1
f 3/4/1 2/5/1 7/3/1
f 6/6/1 5/1/1 7/3/1
f 4/2/1 3/4/1 7/3/1
f 2/5/1 1/7/1 7/3/1
f 1/7/1 6/6/1 7/3/1
f 4/2/2 5/1/2 12/8/2 11/9/2
f 2/5/3 3/4/3 10/10/3 9/11/3
f 5/1/4 6/6/4 13/12/4 12/8/4
f 3/4/5 4/2/5 11/9/5 10/10/5
f 1/7/6 2/5/6 9/11/6 8/13/6
f 6/6/7 1/7/7 8/13/7 13/12/7
f 15/14/8 16/15/8 22/16/8 21/17/8
f 18/18/8 19/19/8 25/20/8 24/21/8
f 16/15/8 17/22/8 23/23/8 22/16/8
f 14/24/8 15/14/8 21/17/8 20/25/8
f 19/19/8 14/24/8 20/25/8 25/20/8
f 17/22/8 18/18/8 24/21/8 23/23/8
f 20/25/9 21/17/9 27/26/9 26/27/9
f 25/20/9 20/25/9 26/27/9 31/28/9
f 23/23/9 24/21/9 30/29/9 29/30/9
f 21/17/9 22/16/9 28/31/9 27/26/9
f 24/21/9 25/20/9 31/28/9 30/29/9
f 22/16/9 23/23/9 29/30/9 28/31/9
usemtl Black
f 10/10/10 11/9/10 17/22/10 16/15/10
f 8/13/11 9/11/11 15/14/11 14/24/11
f 13/12/12 8/13/12 14/24/12 19/19/12
f 11/9/13 12/8/13 18/18/13 17/22/13
f 9/11/14 10/10/14 16/15/14 15/14/14
f 12/8/15 13/12/15 19/19/15 18/18/15
f 30/29/9 31/28/9 32/32/9
f 28/31/9 29/30/9 32/32/9
f 26/27/9 27/26/9 32/32/9
f 31/28/9 26/27/9 32/32/9
f 29/30/9 30/29/9 32/32/9
f 27/26/9 28/31/9 32/32/9
