# Blender v2.92.0 OBJ File: ''
# www.blender.org
mtllib Gem5.mtl
o Gem5_Cylinder.001
v -0.673272 0.058167 1.090160
v -0.619819 0.058167 1.090160
v -0.619819 -0.075764 1.034684
v -0.673272 -0.075764 1.034684
v -0.673272 -0.441005 1.399925
v -0.619819 -0.441005 1.399925
v -0.619819 -0.385529 1.533856
v -0.673272 -0.385529 1.533856
v -0.673272 -0.312696 1.606689
v -0.619819 -0.312696 1.606689
v -0.619819 -0.178765 1.662165
v -0.673272 -0.178765 1.662165
v -0.673272 -0.075763 1.662165
v -0.619819 -0.075763 1.662165
v -0.619819 0.058167 1.606689
v -0.673272 0.058167 1.606689
v -0.673272 0.131000 1.533856
v -0.619819 0.131000 1.533856
v -0.619819 0.186476 1.399925
v -0.673272 0.186476 1.399925
v -0.673272 0.186476 1.296924
v -0.619819 0.186476 1.296924
v -0.619819 0.131000 1.162993
v -0.673272 0.131000 1.162993
v -0.673272 -0.385529 1.162993
v -0.619819 -0.385529 1.162993
v -0.619819 -0.441005 1.296924
v -0.673272 -0.441005 1.296924
v -0.564075 -0.321532 1.154157
v -0.564075 -0.127264 1.073689
v -0.564075 0.067003 1.154157
v -0.564075 0.147471 1.348425
v -0.564075 0.067003 1.542692
v -0.564075 -0.127264 1.623160
v -0.564075 -0.321532 1.542692
v -0.564075 -0.402000 1.348425
v -0.673272 -0.178765 1.034684
v -0.619819 -0.178765 1.034684
v -0.619819 -0.312696 1.090160
v -0.673272 -0.312696 1.090160
v -0.729016 -0.127264 1.073689
v -0.729016 -0.321532 1.154157
v -0.729016 -0.402000 1.348425
v -0.729016 -0.321532 1.542692
v -0.729016 -0.127264 1.623160
v -0.729016 0.067003 1.542692
v -0.729016 0.147471 1.348425
v -0.729016 0.067003 1.154157
vt 0.653481 0.656867
vt 0.653481 0.656867
vt 0.653481 0.656867
vt 0.653481 0.656867
vt 0.653481 0.656867
vt 0.653481 0.656867
vt 0.653481 0.656867
vt 0.653481 0.656867
vt 0.653481 0.656867
vt 0.653481 0.656867
vt 0.653481 0.656867
vt 0.653481 0.656867
vt 0.653481 0.656867
vt 0.653481 0.656867
vt 0.653481 0.656867
vt 0.653481 0.656867
vt 0.653481 0.656867
vt 0.653481 0.656867
vt 0.653481 0.656867
vt 0.653481 0.656867
vt 0.653481 0.656867
vt 0.653481 0.656867
vt 0.653481 0.656867
vt 0.653481 0.656867
vt 0.653481 0.656867
vt 0.653481 0.656867
vt 0.653481 0.656867
vt 0.653481 0.656867
vt 0.653481 0.656867
vt 0.653481 0.656867
vt 0.653481 0.656867
vt 0.653481 0.656867
vt 0.653481 0.656867
vt 0.653481 0.656867
vt 0.653481 0.656867
vt 0.653481 0.656867
vt 0.653481 0.656867
vt 0.653481 0.656867
vt 0.653481 0.656867
vt 0.653481 0.656867
vt 0.653481 0.656867
vt 0.653481 0.656867
vt 0.653481 0.656867
vt 0.653481 0.656867
vt 0.653481 0.656867
vt 0.653481 0.656867
vt 0.653481 0.656867
vt 0.653481 0.656867
vn 0.0000 0.3827 -0.9239
vn 0.0000 -0.9239 0.3827
vn 0.0000 -0.3827 0.9239
vn 0.0000 0.3827 0.9239
vn 0.0000 0.9239 0.3827
vn 0.0000 0.9239 -0.3827
vn 0.0000 -0.9239 -0.3827
vn 1.0000 0.0000 0.0000
vn 0.0000 -0.3827 -0.9239
vn -0.5733 0.0000 -0.8193
vn 0.5733 0.0000 -0.8193
vn -0.5733 -0.5794 -0.5794
vn 0.5733 -0.5794 -0.5794
vn -0.5733 -0.8193 0.0000
vn 0.5733 -0.8193 0.0000
vn -0.5733 -0.5794 0.5794
vn 0.5733 -0.5794 0.5794
vn -0.5733 0.0000 0.8193
vn 0.5733 0.0000 0.8193
vn -0.5733 0.5794 0.5794
vn 0.5733 0.5794 0.5794
vn -0.5733 0.8193 0.0000
vn 0.5733 0.8193 0.0000
vn -0.5733 0.5794 -0.5794
vn 0.5733 0.5794 -0.5794
vn -0.7071 -0.2706 -0.6533
vn 0.7071 -0.2706 -0.6533
vn 0.0000 0.0000 -1.0000
vn 0.0000 -0.7071 -0.7071
vn -0.7071 -0.6533 -0.2706
vn 0.7071 -0.6533 -0.2706
vn 0.0000 -1.0000 -0.0000
vn -0.7071 -0.6533 0.2706
vn 0.7071 -0.6533 0.2706
vn 0.0000 -0.7071 0.7071
vn -0.7071 -0.2706 0.6533
vn 0.7071 -0.2706 0.6533
vn 0.0000 0.0000 1.0000
vn -0.7071 0.2706 0.6533
vn 0.7071 0.2706 0.6533
vn 0.0000 0.7071 0.7071
vn -0.7071 0.6533 0.2706
vn 0.7071 0.6533 0.2706
vn 0.0000 1.0000 0.0000
vn -0.7071 0.6533 -0.2706
vn 0.7071 0.6533 -0.2706
vn 0.0000 0.7071 -0.7071
vn -0.7071 0.2706 -0.6533
vn 0.7071 0.2706 -0.6533
vn -1.0000 0.0000 0.0000
usemtl Material.007
s 1
f 1/1/1 2/2/1 3/3/1 4/4/1
f 5/5/2 6/6/2 7/7/2 8/8/2
f 9/9/3 10/10/3 11/11/3 12/12/3
f 13/13/4 14/14/4 15/15/4 16/16/4
f 17/17/5 18/18/5 19/19/5 20/20/5
f 21/21/6 22/22/6 23/23/6 24/24/6
f 25/25/7 26/26/7 27/27/7 28/28/7
f 29/29/8 30/30/8 31/31/8 32/32/8 33/33/8 34/34/8 35/35/8 36/36/8
f 37/37/9 38/38/9 39/39/9 40/40/9
f 41/41/10 4/4/10 37/37/10
f 30/30/11 38/38/11 3/3/11
f 42/42/12 40/40/12 25/25/12
f 29/29/13 26/26/13 39/39/13
f 43/43/14 28/28/14 5/5/14
f 36/36/15 6/6/15 27/27/15
f 44/44/16 8/8/16 9/9/16
f 35/35/17 10/10/17 7/7/17
f 45/45/18 12/12/18 13/13/18
f 34/34/19 14/14/19 11/11/19
f 46/46/20 16/16/20 17/17/20
f 33/33/21 18/18/21 15/15/21
f 47/47/22 20/20/22 21/21/22
f 32/32/23 22/22/23 19/19/23
f 48/48/24 24/24/24 1/1/24
f 31/31/25 2/2/25 23/23/25
f 37/37/26 40/40/26 42/42/26 41/41/26
f 39/39/27 38/38/27 30/30/27 29/29/27
f 4/4/28 3/3/28 38/38/28 37/37/28
f 26/26/29 25/25/29 40/40/29 39/39/29
f 25/25/30 28/28/30 43/43/30 42/42/30
f 27/27/31 26/26/31 29/29/31 36/36/31
f 6/6/32 5/5/32 28/28/32 27/27/32
f 5/5/33 8/8/33 44/44/33 43/43/33
f 7/7/34 6/6/34 36/36/34 35/35/34
f 10/10/35 9/9/35 8/8/35 7/7/35
f 9/9/36 12/12/36 45/45/36 44/44/36
f 11/11/37 10/10/37 35/35/37 34/34/37
f 14/14/38 13/13/38 12/12/38 11/11/38
f 13/13/39 16/16/39 46/46/39 45/45/39
f 15/15/40 14/14/40 34/34/40 33/33/40
f 18/18/41 17/17/41 16/16/41 15/15/41
f 17/17/42 20/20/42 47/47/42 46/46/42
f 19/19/43 18/18/43 33/33/43 32/32/43
f 22/22/44 21/21/44 20/20/44 19/19/44
f 21/21/45 24/24/45 48/48/45 47/47/45
f 23/23/46 22/22/46 32/32/46 31/31/46
f 2/2/47 1/1/47 24/24/47 23/23/47
f 1/1/48 4/4/48 41/41/48 48/48/48
f 3/3/49 2/2/49 31/31/49 30/30/49
f 41/41/50 42/42/50 43/43/50 44/44/50 45/45/50 46/46/50 47/47/50 48/48/50
