# Blender v2.92.0 OBJ File: ''
# www.blender.org
mtllib Gem6.mtl
o Gem6_Cylinder.003
v -0.690388 -0.508503 2.050836
v -0.602704 -0.508503 2.050836
v -0.602704 -0.533243 2.110565
v -0.690388 -0.533243 2.110565
v -0.690388 0.000495 2.499123
v -0.602704 0.000495 2.499123
v -0.602704 0.141977 2.455672
v -0.690388 0.141977 2.455672
v -0.690388 0.272560 2.347497
v -0.602704 0.272560 2.347497
v -0.602704 0.297300 2.287768
v -0.690388 0.297300 2.287768
v -0.690388 0.297300 2.110565
v -0.602704 0.297300 2.110565
v -0.602704 0.272560 2.050836
v -0.690388 0.272560 2.050836
v -0.690388 0.000495 1.899210
v -0.602704 0.000495 1.899210
v -0.602704 -0.140988 1.883667
v -0.690388 -0.140988 1.883667
v -0.690388 -0.323472 1.900794
v -0.602704 -0.323472 1.900794
v -0.602704 -0.383201 1.925534
v -0.690388 -0.383201 1.925534
v -0.690388 -0.383201 2.472798
v -0.602704 -0.383201 2.472798
v -0.602704 -0.323472 2.497539
v -0.690388 -0.323472 2.497539
v -0.506802 -0.398403 2.362699
v -0.506802 -0.466140 2.199166
v -0.506802 -0.398403 2.035634
v -0.506802 -0.225493 1.964013
v -0.506802 -0.029417 1.995413
v -0.506802 0.166658 2.045770
v -0.506802 0.230197 2.199166
v -0.506802 0.166658 2.352562
v -0.506802 -0.029417 2.402920
v -0.506802 -0.225493 2.434320
v -0.690388 -0.533243 2.287768
v -0.602704 -0.533243 2.287768
v -0.602704 -0.508503 2.347497
v -0.690388 -0.508503 2.347497
v -0.786289 -0.466140 2.199166
v -0.786289 -0.398403 2.362699
v -0.786289 -0.225493 2.434320
v -0.690388 -0.140987 2.514666
v -0.602704 -0.140987 2.514666
v -0.786289 0.166658 2.352562
v -0.786289 0.230197 2.199166
v -0.786289 0.166658 2.045770
v -0.690388 0.141977 1.942661
v -0.602704 0.141977 1.942661
v -0.786289 -0.225493 1.964013
v -0.786289 -0.398403 2.035634
v -0.786289 -0.029417 2.402920
v -0.786289 -0.029417 1.995413
vt 0.653481 0.656867
vt 0.653481 0.343134
vt 0.591678 0.343134
vt 0.591678 0.656867
vt 0.189629 0.656867
vt 0.189629 0.343134
vt 0.234589 0.343134
vt 0.234589 0.656867
vt 0.346519 0.656867
vt 0.346519 0.343134
vt 0.408322 0.343134
vt 0.408322 0.656867
vt 0.591678 0.656867
vt 0.591678 0.343134
vt 0.653481 0.343134
vt 0.653481 0.656867
vt 0.810371 0.656867
vt 0.810371 0.343134
vt 0.826453 0.343134
vt 0.826453 0.656865
vt 0.808732 0.656865
vt 0.808732 0.343134
vt 0.783133 0.343134
vt 0.783133 0.656865
vt 0.216868 0.656867
vt 0.216868 0.343134
vt 0.191268 0.343134
vt 0.191268 0.656867
vt 0.330790 0.000002
vt 0.500000 0.000000
vt 0.669210 0.000000
vt 0.743319 0.000000
vt 0.710828 0.000000
vt 0.658722 0.000000
vt 0.500000 0.000000
vt 0.341278 0.000002
vt 0.289173 0.000002
vt 0.256682 0.000002
vt 0.408322 0.656867
vt 0.408322 0.343134
vt 0.346519 0.343134
vt 0.346519 0.656867
vt 0.500001 1.000000
vt 0.330790 1.000000
vt 0.256682 1.000000
vt 0.173547 0.656867
vt 0.173547 0.343134
vt 0.341279 1.000000
vt 0.500001 1.000000
vt 0.658722 1.000000
vt 0.765411 0.656867
vt 0.765411 0.343134
vt 0.743319 1.000000
vt 0.669210 1.000000
vt 0.289173 1.000000
vt 0.710829 1.000000
vn 0.0000 -0.9239 -0.3827
vn 0.0000 0.2936 0.9559
vn 0.0000 0.9239 0.3827
vn 0.0000 0.9239 -0.3827
vn 0.0000 0.1092 -0.9940
vn 0.0000 -0.3827 -0.9239
vn 0.0000 -0.3827 0.9239
vn 1.0000 0.0000 0.0000
vn 0.0000 -0.9239 0.3827
vn -0.5733 -0.8193 0.0000
vn 0.5733 -0.8193 0.0000
vn -0.5733 -0.5794 0.5794
vn 0.5733 -0.5794 0.5794
vn -0.6009 -0.0747 0.7958
vn 0.6009 -0.0747 0.7958
vn -0.5530 0.5315 0.6416
vn 0.5530 0.5315 0.6416
vn -0.5733 0.8193 0.0000
vn 0.5733 0.8193 0.0000
vn -0.5530 0.5315 -0.6416
vn 0.5530 0.5315 -0.6416
vn -0.6009 -0.0747 -0.7958
vn 0.6009 -0.0747 -0.7958
vn -0.5733 -0.5794 -0.5794
vn 0.5733 -0.5794 -0.5794
vn -0.7071 -0.6533 0.2706
vn 0.7071 -0.6533 0.2706
vn 0.0000 -1.0000 0.0000
vn 0.0000 -0.7071 0.7071
vn -0.7071 -0.2706 0.6533
vn 0.7071 -0.2706 0.6533
vn 0.0000 -0.0934 0.9956
vn -0.7101 0.1885 0.6784
vn 0.7049 0.0977 0.7025
vn 0.0000 0.6379 0.7701
vn -0.7071 0.6533 0.2706
vn 0.7071 0.6533 0.2706
vn 0.0000 1.0000 0.0000
vn -0.7071 0.6533 -0.2706
vn 0.7071 0.6533 -0.2706
vn 0.0000 0.6379 -0.7701
vn -0.7049 0.0977 -0.7025
vn 0.7101 0.1885 -0.6784
vn 0.0000 -0.0934 -0.9956
vn -0.7071 -0.2706 -0.6533
vn 0.7071 -0.2706 -0.6533
vn 0.0000 -0.7071 -0.7071
vn -0.7071 -0.6533 -0.2706
vn 0.7071 -0.6533 -0.2706
vn -1.0000 -0.0000 0.0000
vn 0.7101 0.1885 0.6784
vn -0.7049 0.0977 0.7025
vn 0.0000 0.1092 0.9940
vn 0.7049 0.0977 -0.7025
vn -0.7101 0.1885 -0.6784
vn 0.0000 0.2936 -0.9559
usemtl Material.006
s 1
f 1/1/1 2/2/1 3/3/1 4/4/1
f 5/5/2 6/6/2 7/7/2 8/8/2
f 9/9/3 10/10/3 11/11/3 12/12/3
f 13/13/4 14/14/4 15/15/4 16/16/4
f 17/17/5 18/18/5 19/19/5 20/20/5
f 21/21/6 22/22/6 23/23/6 24/24/6
f 25/25/7 26/26/7 27/27/7 28/28/7
f 29/29/8 30/30/8 31/31/8 32/32/8 33/33/8 34/34/8 35/35/8 36/36/8 37/37/8 38/38/8
f 39/39/9 40/40/9 41/41/9 42/42/9
f 43/43/10 4/4/10 39/39/10
f 30/30/11 40/40/11 3/3/11
f 44/44/12 42/42/12 25/25/12
f 29/29/13 26/26/13 41/41/13
f 45/45/14 28/28/14 46/46/14
f 38/38/15 47/47/15 27/27/15
f 48/48/16 8/8/16 9/9/16
f 36/36/17 10/10/17 7/7/17
f 49/49/18 12/12/18 13/13/18
f 35/35/19 14/14/19 11/11/19
f 50/50/20 16/16/20 51/51/20
f 34/34/21 52/52/21 15/15/21
f 53/53/22 20/20/22 21/21/22
f 32/32/23 22/22/23 19/19/23
f 54/54/24 24/24/24 1/1/24
f 31/31/25 2/2/25 23/23/25
f 39/39/26 42/42/26 44/44/26 43/43/26
f 41/41/27 40/40/27 30/30/27 29/29/27
f 4/4/28 3/3/28 40/40/28 39/39/28
f 26/26/29 25/25/29 42/42/29 41/41/29
f 25/25/30 28/28/30 45/45/30 44/44/30
f 27/27/31 26/26/31 29/29/31 38/38/31
f 47/47/32 46/46/32 28/28/32 27/27/32
f 5/5/33 8/8/33 48/48/33 55/55/33
f 6/6/34 47/47/34 38/38/34 37/37/34
f 10/10/35 9/9/35 8/8/35 7/7/35
f 9/9/36 12/12/36 49/49/36 48/48/36
f 11/11/37 10/10/37 36/36/37 35/35/37
f 14/14/38 13/13/38 12/12/38 11/11/38
f 13/13/39 16/16/39 50/50/39 49/49/39
f 15/15/40 14/14/40 35/35/40 34/34/40
f 52/52/41 51/51/41 16/16/41 15/15/41
f 17/17/42 20/20/42 53/53/42 56/56/42
f 18/18/43 52/52/43 34/34/43 33/33/43
f 22/22/44 21/21/44 20/20/44 19/19/44
f 21/21/45 24/24/45 54/54/45 53/53/45
f 23/23/46 22/22/46 32/32/46 31/31/46
f 2/2/47 1/1/47 24/24/47 23/23/47
f 1/1/48 4/4/48 43/43/48 54/54/48
f 3/3/49 2/2/49 31/31/49 30/30/49
f 43/43/50 44/44/50 45/45/50 55/55/50 48/48/50 49/49/50 50/50/50 56/56/50 53/53/50 54/54/50
f 7/7/51 6/6/51 37/37/51 36/36/51
f 46/46/52 5/5/52 55/55/52 45/45/52
f 46/46/53 47/47/53 6/6/53 5/5/53
f 19/19/54 18/18/54 33/33/54 32/32/54
f 51/51/55 17/17/55 56/56/55 50/50/55
f 51/51/56 52/52/56 18/18/56 17/17/56
