# Blender v2.92.0 OBJ File: ''
# www.blender.org
mtllib Gem7.mtl
o Gem7_Icosphere.001
v -0.490622 -0.292863 -2.322308
v -0.606779 -0.381599 -2.406700
v -0.490622 -0.292863 -2.491091
v -0.759100 -0.381599 -2.456192
v -0.902679 -0.292863 -2.456192
v -0.803468 -0.292863 -2.592742
v -0.664961 -0.381599 -2.326620
v -0.548804 -0.292863 -2.242228
v -0.709327 -0.292863 -2.190070
v -0.664961 -0.381599 -2.486779
v -0.709327 -0.292863 -2.623329
v -0.548804 -0.292863 -2.571171
v -0.438583 -0.208661 -2.322308
v -0.438583 -0.208661 -2.491091
v -0.411161 -0.065082 -2.406700
v -0.464603 -0.156621 -2.242228
v -0.437181 -0.013041 -2.326621
v -0.536393 -0.013041 -2.190070
v -0.777448 -0.156621 -2.140578
v -0.688713 -0.013041 -2.140578
v -0.849238 -0.013041 -2.192736
v -0.970800 -0.156620 -2.406700
v -0.943378 -0.013041 -2.322308
v -0.943378 -0.013041 -2.491091
v -0.777448 -0.156621 -2.672821
v -0.849238 -0.013041 -2.620663
v -0.688713 -0.013041 -2.672821
v -0.464603 -0.156621 -2.571171
v -0.536393 -0.013041 -2.623330
v -0.437181 -0.013041 -2.486778
v -0.693248 -0.208661 -2.140578
v -0.532723 -0.208661 -2.192736
v -0.604513 -0.065081 -2.140578
v -0.944780 -0.208661 -2.326621
v -0.845568 -0.208661 -2.190070
v -0.917358 -0.065081 -2.242228
v -0.845568 -0.208661 -2.623330
v -0.944780 -0.208661 -2.486778
v -0.917358 -0.065081 -2.571171
v -0.532723 -0.208661 -2.620663
v -0.693248 -0.208661 -2.672821
v -0.604513 -0.065081 -2.672821
v -0.578493 0.071161 -2.220657
v -0.479282 0.071161 -2.357208
v -0.622861 0.159897 -2.357208
v -0.833157 0.071161 -2.242228
v -0.672634 0.071161 -2.190070
v -0.717000 0.159897 -2.326620
v -0.891338 0.071161 -2.491091
v -0.891338 0.071161 -2.322308
v -0.775182 0.159897 -2.406700
v -0.672634 0.071161 -2.623329
v -0.833157 0.071161 -2.571171
v -0.717000 0.159897 -2.486779
v -0.479282 0.071161 -2.456192
v -0.578493 0.071161 -2.592742
v -0.622861 0.159897 -2.456192
v -0.759100 -0.381599 -2.357208
v -0.803468 -0.292863 -2.220657
v -0.902679 -0.292863 -2.357208
vt 0.653481 0.656867
vt 0.653481 0.656867
vt 0.653481 0.656867
vt 0.653481 0.656867
vt 0.653481 0.656867
vt 0.653481 0.656867
vt 0.653481 0.656867
vt 0.653481 0.656867
vt 0.653481 0.656867
vt 0.653481 0.656867
vt 0.653481 0.656867
vt 0.653481 0.656867
vt 0.653481 0.656867
vt 0.653481 0.656867
vt 0.653481 0.656867
vt 0.653481 0.656867
vt 0.653481 0.656867
vt 0.653481 0.656867
vt 0.653481 0.656867
vt 0.653481 0.656867
vt 0.653481 0.656867
vt 0.653481 0.656867
vt 0.653481 0.656867
vt 0.653481 0.656867
vt 0.653481 0.656867
vt 0.653481 0.656867
vt 0.653481 0.656867
vt 0.653481 0.656867
vt 0.653481 0.656867
vt 0.653481 0.656867
vt 0.653481 0.656867
vt 0.653481 0.656867
vt 0.653481 0.656867
vt 0.653481 0.656867
vt 0.653481 0.656867
vt 0.653481 0.656867
vt 0.653481 0.656867
vt 0.653481 0.656867
vt 0.653481 0.656867
vt 0.653481 0.656867
vt 0.653481 0.656867
vt 0.653481 0.656867
vt 0.653481 0.656867
vt 0.653481 0.656867
vt 0.653481 0.656867
vt 0.653481 0.656867
vt 0.653481 0.656867
vt 0.653481 0.656867
vt 0.653481 0.656867
vt 0.653481 0.656867
vt 0.653481 0.656867
vt 0.653481 0.656867
vt 0.653481 0.656867
vt 0.653481 0.656867
vt 0.653481 0.656867
vt 0.653481 0.656867
vt 0.653481 0.656867
vt 0.653481 0.656867
vt 0.653481 0.656867
vt 0.653481 0.656867
vn 0.6071 -0.7947 0.0000
vn -0.4911 -0.7947 -0.3568
vn 0.1876 -0.7947 0.5774
vn 0.1876 -0.7947 -0.5774
vn 0.9822 -0.1876 -0.0000
vn 0.7947 0.1876 0.5774
vn -0.3035 0.1876 0.9342
vn -0.9822 0.1876 0.0000
vn -0.3035 0.1876 -0.9342
vn 0.7947 0.1876 -0.5774
vn 0.3035 -0.1876 0.9342
vn -0.7946 -0.1876 0.5774
vn -0.7947 -0.1876 -0.5774
vn 0.3035 -0.1876 -0.9342
vn 0.4911 0.7947 0.3568
vn -0.1876 0.7947 0.5774
vn -0.6071 0.7947 0.0000
vn -0.1876 0.7947 -0.5774
vn 0.4911 0.7947 -0.3568
vn 0.0000 -1.0000 -0.0000
vn 0.7236 -0.4472 0.5257
vn -0.2764 -0.4472 0.8507
vn -0.8944 -0.4472 -0.0000
vn -0.2764 -0.4472 -0.8507
vn 0.7236 -0.4472 -0.5257
vn 0.2764 0.4472 0.8507
vn -0.7236 0.4472 0.5257
vn -0.7236 0.4472 -0.5257
vn 0.2764 0.4472 -0.8507
vn 0.8944 0.4472 0.0000
vn -0.0000 1.0000 0.0000
vn -0.1625 -0.8507 0.5000
vn 0.4253 -0.8507 0.3090
vn 0.2629 -0.5257 0.8090
vn 0.8507 -0.5257 -0.0000
vn 0.4253 -0.8506 -0.3090
vn -0.5257 -0.8507 0.0000
vn -0.6882 -0.5257 0.5000
vn -0.1625 -0.8506 -0.5000
vn -0.6882 -0.5257 -0.5000
vn 0.2629 -0.5257 -0.8090
vn 0.9511 -0.0000 0.3090
vn 0.9511 -0.0000 -0.3090
vn 0.0000 0.0000 1.0000
vn 0.5878 0.0000 0.8090
vn -0.9511 0.0000 0.3090
vn -0.5878 -0.0000 0.8090
vn -0.5878 0.0000 -0.8090
vn -0.9511 0.0000 -0.3090
vn 0.5878 -0.0000 -0.8090
vn 0.0000 0.0000 -1.0000
vn 0.6882 0.5257 0.5000
vn -0.2629 0.5257 0.8090
vn -0.8506 0.5257 0.0000
vn -0.2629 0.5257 -0.8090
vn 0.6882 0.5257 -0.5000
vn 0.1625 0.8507 0.5000
vn 0.5257 0.8507 0.0000
vn -0.4253 0.8506 0.3090
vn -0.4253 0.8506 -0.3090
vn 0.1625 0.8506 -0.5000
vn -0.4911 -0.7947 0.3568
usemtl Material.012
s 1
f 1/1/1 2/2/1 3/3/1
f 4/4/2 5/5/2 6/6/2
f 7/7/3 8/8/3 9/9/3
f 10/10/4 11/11/4 12/12/4
f 13/13/5 14/14/5 15/15/5
f 16/16/6 17/17/6 18/18/6
f 19/19/7 20/20/7 21/21/7
f 22/22/8 23/23/8 24/24/8
f 25/25/9 26/26/9 27/27/9
f 28/28/10 29/29/10 30/30/10
f 31/31/11 32/32/11 33/33/11
f 34/34/12 35/35/12 36/36/12
f 37/37/13 38/38/13 39/39/13
f 40/40/14 41/41/14 42/42/14
f 43/43/15 44/44/15 45/45/15
f 46/46/16 47/47/16 48/48/16
f 49/49/17 50/50/17 51/51/17
f 52/52/18 53/53/18 54/54/18
f 55/55/19 56/56/19 57/57/19
f 58/58/20 4/4/20 10/10/20 2/2/20 7/7/20
f 1/1/21 13/13/21 16/16/21 32/32/21 8/8/21
f 59/59/22 9/9/22 31/31/22 19/19/22 35/35/22
f 5/5/23 60/60/23 34/34/23 22/22/23 38/38/23
f 11/11/24 6/6/24 37/37/24 25/25/24 41/41/24
f 14/14/25 3/3/25 12/12/25 40/40/25 28/28/25
f 20/20/26 33/33/26 18/18/26 43/43/26 47/47/26
f 23/23/27 36/36/27 21/21/27 46/46/27 50/50/27
f 26/26/28 39/39/28 24/24/28 49/49/28 53/53/28
f 29/29/29 42/42/29 27/27/29 52/52/29 56/56/29
f 17/17/30 15/15/30 30/30/30 55/55/30 44/44/30
f 48/48/31 45/45/31 57/57/31 54/54/31 51/51/31
f 59/59/32 58/58/32 7/7/32 9/9/32
f 2/2/33 1/1/33 8/8/33 7/7/33
f 32/32/34 31/31/34 9/9/34 8/8/34
f 14/14/35 13/13/35 1/1/35 3/3/35
f 10/10/36 12/12/36 3/3/36 2/2/36
f 5/5/37 4/4/37 58/58/37 60/60/37
f 35/35/38 34/34/38 60/60/38 59/59/38
f 11/11/39 10/10/39 4/4/39 6/6/39
f 38/38/40 37/37/40 6/6/40 5/5/40
f 41/41/41 40/40/41 12/12/41 11/11/41
f 17/17/42 16/16/42 13/13/42 15/15/42
f 28/28/43 30/30/43 15/15/43 14/14/43
f 20/20/44 19/19/44 31/31/44 33/33/44
f 16/16/45 18/18/45 33/33/45 32/32/45
f 23/23/46 22/22/46 34/34/46 36/36/46
f 19/19/47 21/21/47 36/36/47 35/35/47
f 26/26/48 25/25/48 37/37/48 39/39/48
f 22/22/49 24/24/49 39/39/49 38/38/49
f 29/29/50 28/28/50 40/40/50 42/42/50
f 25/25/51 27/27/51 42/42/51 41/41/51
f 44/44/52 43/43/52 18/18/52 17/17/52
f 47/47/53 46/46/53 21/21/53 20/20/53
f 50/50/54 49/49/54 24/24/54 23/23/54
f 53/53/55 52/52/55 27/27/55 26/26/55
f 56/56/56 55/55/56 30/30/56 29/29/56
f 48/48/57 47/47/57 43/43/57 45/45/57
f 55/55/58 57/57/58 45/45/58 44/44/58
f 51/51/59 50/50/59 46/46/59 48/48/59
f 54/54/60 53/53/60 49/49/60 51/51/60
f 57/57/61 56/56/61 52/52/61 54/54/61
f 58/58/62 59/59/62 60/60/62
